<svg id="Capa_1" data-name="Capa 1" xmlns="http://www.w3.org/2000/svg" viewBox="0 0 2040.94 2040.94"><defs><style>.cls-1{fill:#4f3696;}.cls-2{fill:#49b0a5;}.cls-3{fill:#fff;}</style></defs><title>ICONO SVG</title><rect class="cls-1" width="2040.94" height="2040.94"/><path class="cls-2" d="M1763.83,706.43a809.38,809.38,0,1,0,63.41,314A804,804,0,0,0,1763.83,706.43Zm-19.42,314c0,399.18-324.76,723.94-723.94,723.94s-723.93-324.76-723.93-723.94,324.75-723.93,723.93-723.93S1744.41,621.29,1744.41,1020.47Z"/><rect class="cls-3" x="581.1" y="623.02" width="124.25" height="794.91" rx="14.47" ry="14.47"/><path class="cls-3" d="M1268.52,820.54c-70.73,0-138.06,33.9-183,73.5V848.79A14.47,14.47,0,0,0,1071,834.32H984.87a14.46,14.46,0,0,0-14.46,14.47v554.67a14.45,14.45,0,0,0,14.46,14.46H1071a14.46,14.46,0,0,0,14.47-14.46v-400.6c28.74-37.5,86.57-76.44,149.75-76.44,76.79,0,109.56,34.14,109.56,114.15v362.89a14.46,14.46,0,0,0,14.47,14.46h86.12a14.46,14.46,0,0,0,14.47-14.46v-389.3C1459.84,887.49,1393.69,820.54,1268.52,820.54Z"/><polygon class="cls-3" points="1032.1 623.02 1051.16 661.65 1093.79 667.84 1062.94 697.91 1070.22 740.36 1032.1 720.32 993.97 740.36 1001.25 697.91 970.41 667.84 1013.03 661.65 1032.1 623.02"/><polygon class="cls-3" points="1215.12 623.02 1234.19 661.65 1276.81 667.84 1245.97 697.91 1253.25 740.36 1215.12 720.32 1177 740.36 1184.28 697.91 1153.43 667.84 1196.06 661.65 1215.12 623.02"/><polygon class="cls-3" points="1398.15 623.02 1417.22 661.65 1459.84 667.84 1429 697.91 1436.28 740.36 1398.15 720.32 1360.03 740.36 1367.31 697.91 1336.46 667.84 1379.09 661.65 1398.15 623.02"/></svg>